<?xml version="1.0" encoding="UTF-8" standalone="no"?>
<!DOCTYPE svg PUBLIC "-//W3C//DTD SVG 1.1//EN" "http://www.w3.org/Graphics/SVG/1.1/DTD/svg11.dtd">
<svg width="100%" height="100%" viewBox="0 0 113 113" version="1.1" xmlns="http://www.w3.org/2000/svg" xmlns:xlink="http://www.w3.org/1999/xlink" xml:space="preserve" style="fill-rule:evenodd;clip-rule:evenodd;stroke-linejoin:round;stroke-miterlimit:1.41421;">
    <g>
        <circle cx="56.099" cy="56.098" r="56.098" style="fill:rgb(231,76,60);"/>
        <g transform="matrix(1.54746,0,0,1.54746,56.0985,56.0985)">
            <g transform="matrix(1,0,0,1,-22,-22)">
                <g>
                    <path d="M43,6L1,6C0.447,6 0,6.447 0,7L0,37C0,37.553 0.447,38 1,38L43,38C43.552,38 44,37.553 44,37L44,7C44,6.447 43.552,6 43,6ZM42,33.581L29.612,21.194L28.198,22.608L41.59,36L2.41,36L15.802,22.608L14.388,21.194L2,33.581L2,8L42,8L42,33.581Z" style="fill:rgb(236,240,241);fill-rule:nonzero;"/>
                    <path d="M39.979,8L22,25.979L4.021,8L2,8L2,8.807L21.293,28.1C21.684,28.491 22.316,28.491 22.707,28.1L42,8.807L42,8L39.979,8Z" style="fill:rgb(236,240,241);fill-rule:nonzero;"/>
                </g>
            </g>
        </g>
    </g>
</svg>
